The Isle of Wight Festival 2011 was the tenth revived Isle of Wight Festival held at Seaclose Park in Newport on the Isle of Wight. The event ran from the 9-12th June 2011. Tickets went on sale on the 19th November 2010, and sold out quickly.

The 2011 event was the first under a ten-year deal between the Isle of Wight Council and the promoters Solos.


   
Line up
Main Stage

Friday

    * Kings Of Leon
    * Kaiser Chiefs
    * The Courteeners
    * Band Of Horses
    * We Are Scientists
    * Big Country

Saturday

    * Foo Fighters
    * Pulp
    * Iggy And The Stooges
    * Seasick Steve
    * Mike & The Mechanics
    * Hurts
    * Stornoway
    * Lissie
    * The Vecks

Sunday

    * Kasabian
    * Beady Eye
    * The Script
    * Plan B
    * Pixie Lott
    * Two Door Cinema Club
    * James Walsh
    * Jeff Beck

 Big Top

Thursday

    * Boy George
    * ABC

Friday

    * Joan Jett and The Blackhearts
    * Alexandra Burke
    * Eliza Doolittle
    * Imelda May
    * Sharon Corr
    * Wonderland
    * Edei
    * Laura Steel

Saturday

    * The British Pink Floyd Show
    * Tom Jones
    * Chase & Status
    * Maverick Sabre
    * Parade
    * The Cult
    * Wild Beasts
    * The Vaccines
    * Semi Precious Weapons
    * Our Fold

Sunday

    * Manic Street Preachers
    * Public Image Limited
    * Cast
    * Hadouken!
    * Nick Lowe
    * Brother
    * Various Cruelties
    * Springbok Nude Girls
    * Twenty Twenty

TTLTTLTTLTTLTTLTTLTTLTTLTTLTTLTTLTTLTTLTTLTTLTTLTTLTTLTTLTTLTTLTTLTTLTTLTTL																																									Isle_Of_Wight_Festival_2011_480p.HDTV.x264_TTL-1.mkv
Format                           : Matroska
File size                        : 2.43 GiB
Duration                         : 2h 14mn
Overall bit rate                 : 2 584 Kbps
Writing application              : HandBrake 0.9.5
Writing library                  : libmkv 0.6.4.1

Video
ID                               : 1
Format                           : AVC
Format/Info                      : Advanced Video Codec
Format profile                   : Main@L3.0
Format settings, CABAC           : Yes
Format settings, ReFrames        : 4 frames
Muxing mode                      : Container profile=Unknown@3.0
Codec ID                         : V_MPEG4/ISO/AVC
Duration                         : 2h 14mn
Bit rate                         : 2 194 Kbps
Width                            : 624 pixels
Height                           : 352 pixels
Display aspect ratio             : 16:9
Frame rate mode                  : Variable
Frame rate                       : 29.970 fps
Color space                      : YUV
Chroma subsampling               : 4:2:0
Bit depth                        : 8 bits
Scan type                        : Progressive
Bits/(Pixel*Frame)               : 0.333
Stream size                      : 2.02 GiB (83%)
Writing library                  : x264 core 112
Encoding settings                : cabac=1 / ref=2 / deblock=1:0:0 / analyse=0x1:0x111 / me=hex / subme=6 / psy=1 / psy_rd=1.00:0.00 / mixed_ref=0 / me_range=16 / chroma_me=1 / trellis=0 / 8x8dct=0 / cqm=0 / deadzone=21,11 / fast_pskip=1 / chroma_qp_offset=-2 / threads=3 / sliced_threads=0 / nr=0 / decimate=1 / interlaced=0 / constrained_intra=0 / bframes=2 / b_pyramid=2 / b_adapt=1 / b_bias=0 / direct=1 / weightb=0 / open_gop=0 / weightp=2 / keyint=300 / keyint_min=29 / scenecut=40 / intra_refresh=0 / rc_lookahead=40 / rc=2pass / mbtree=1 / bitrate=2194 / ratetol=1.0 / qcomp=0.60 / qpmin=3 / qpmax=51 / qpstep=4 / cplxblur=20.0 / qblur=0.5 / ip_ratio=1.40 / aq=1:1.00
Color primaries                  : BT.601-6 525, BT.1358 525, BT.1700 NTSC, SMPTE 170M
Transfer characteristics         : BT.709-5, BT.1361
Matrix coefficients              : BT.601-6 525, BT.1358 525, BT.1700 NTSC, SMPTE 170M

Audio
ID                               : 2
Format                           : AC-3
Format/Info                      : Audio Coding 3
Mode extension                   : CM (complete main)
Codec ID                         : A_AC3
Duration                         : 2h 14mn
Bit rate mode                    : Constant
Bit rate                         : 384 Kbps
Channel(s)                       : 2 channels
Channel positions                : Front: L R
Sampling rate                    : 48.0 KHz
Stream size                      : 370 MiB (15%)

